<svg width="25" height="30" viewBox="0 0 25 30" fill="none" xmlns="http://www.w3.org/2000/svg">
<path d="M17.9385 0C18.206 1.825 17.466 3.6125 16.4885 4.875C15.4447 6.225 13.651 7.275 11.9135 7.225C11.596 5.475 12.411 3.6875 13.401 2.475C14.4872 1.1375 16.351 0.125 17.9385 0.0125V0ZM18.5635 7.5C20.551 7.5 22.651 8.5925 24.151 10.475C19.2385 13.1875 20.0385 20.275 25.001 22.175C24.4847 23.42 23.8522 24.6125 23.1135 25.7375C21.886 27.625 20.151 29.975 18.0135 30C17.131 30.0087 16.551 29.7412 15.926 29.4525C15.2022 29.1187 14.4135 28.7562 13.026 28.7637C11.651 28.77 10.851 29.1287 10.1135 29.4587C9.4735 29.7462 8.8835 30.0125 8.001 30.0037C5.851 29.985 4.2135 27.8662 2.9885 25.9787C-0.449001 20.7037 -0.799001 14.5037 1.3135 11.2287C2.8135 8.89125 5.1885 7.51625 7.426 7.51625C8.616 7.51625 9.576 7.86125 10.4885 8.19C11.3185 8.48875 12.1135 8.77375 13.001 8.77375C13.8285 8.77375 14.5135 8.51375 15.251 8.23C16.1435 7.88875 17.126 7.51375 18.5635 7.51375V7.5Z" fill="#010101"/>
</svg>
