<svg width="22" height="24" viewBox="0 0 22 24" fill="none" xmlns="http://www.w3.org/2000/svg">
<path d="M0.362082 1.16729L11.2871 11.881L0.443332 22.6935C0.265925 22.4625 0.12821 22.2035 0.035832 21.9273C-0.011944 21.6145 -0.011944 21.2963 0.035832 20.9835V2.58354C0.00333199 2.08979 0.117082 1.59604 0.360832 1.16729M15.9933 7.20854L12.4271 10.741L1.63208 0.124793C1.98208 0.00354294 2.35708 -0.0302069 2.72333 0.0272931C3.29833 0.184793 3.84708 0.427293 4.35083 0.743543L14.1208 6.14979C14.7558 6.49104 15.3746 6.84979 15.9933 7.20854ZM12.4283 13.0373L15.9771 16.5223L13.4046 17.9548L5.55583 22.3173C4.90583 22.676 4.25333 23.0185 3.61833 23.4098C3.34662 23.579 3.04194 23.6882 2.72464 23.7302C2.40734 23.7723 2.08472 23.7461 1.77833 23.6535L12.4283 13.0373ZM21.6283 11.881C21.6374 12.3181 21.527 12.7494 21.3089 13.1283C21.0908 13.5072 20.7734 13.8194 20.3908 14.031L17.4583 15.6585L13.5996 11.881L17.4746 8.03854C18.4683 8.59229 19.4458 9.14604 20.4221 9.66729C20.8114 9.88491 21.1312 10.2083 21.3445 10.6001C21.5577 10.9918 21.6569 11.4359 21.6283 11.881Z" fill="black"/>
</svg>
